<?xml version="1.0" encoding="utf-8"?>
<!-- Generator: Adobe Illustrator 16.0.0, SVG Export Plug-In . SVG Version: 6.00 Build 0)  -->
<!DOCTYPE svg PUBLIC "-//W3C//DTD SVG 1.1//EN" "http://www.w3.org/Graphics/SVG/1.1/DTD/svg11.dtd">
<svg version="1.1" id="Layer_1" xmlns="http://www.w3.org/2000/svg" xmlns:xlink="http://www.w3.org/1999/xlink" x="0px" y="0px"
	 width="92.771px" height="101.808px" viewBox="0 0 92.771 101.808" enable-background="new 0 0 92.771 101.808"
	 xml:space="preserve">
<g>
	<g>
		<path fill="none" stroke="#4AFF7B" stroke-miterlimit="10" d="M50.775,77.928c13.951-16.924,23.43-18.148,23.43-18.148
			c-15.231,6.765-19.734,21.712-19.734,21.712c33.928,5.744,33.928-36.097,33.928-36.097C39.73,50.289,50.775,77.928,50.775,77.928z
			"/>
		<path fill="none" stroke="#4AFF7B" stroke-miterlimit="10" d="M45.003,57.628c-3.376-21.669,1.994-29.579,1.994-29.579
			c-5.05,15.882,3.123,29.187,3.123,29.187c26.827-21.554-4.445-49.344-4.445-49.344C17.009,47.531,45.003,57.628,45.003,57.628z"/>
		<path fill="none" stroke="#4AFF7B" stroke-miterlimit="10" d="M39.505,87.385c-9.242,0.863-11.928,3.895-11.928,3.895
			c5.983-3.725,12.298-1.752,12.298-1.752c-6.051,13.246-20.715,3.309-20.715,3.309C32.45,76.942,39.505,87.385,39.505,87.385z"/>
		<path fill="none" stroke="#4AFF7B" stroke-miterlimit="10" d="M53.662,87.385c9.244,0.863,11.928,3.895,11.928,3.895
			c-5.983-3.725-12.298-1.752-12.298-1.752c6.056,13.246,20.717,3.309,20.717,3.309C60.717,76.942,53.662,87.385,53.662,87.385z"/>
		<path fill="none" stroke="#4AFF7B" stroke-miterlimit="10" d="M41.569,77.928C27.615,61.004,18.133,59.78,18.133,59.78
			C33.355,66.545,37.87,81.492,37.87,81.492C3.941,87.236,3.941,45.395,3.941,45.395C52.612,50.289,41.569,77.928,41.569,77.928z"/>
	</g>
</g>
</svg>
