<svg id="Layer_1" data-name="Layer 1" xmlns="http://www.w3.org/2000/svg" viewBox="0 0 740.37 199.95"><defs><style>.cls-1{fill:#184e2b;}.cls-2{fill:#59b05c;}.cls-3{fill:#1a4f2b;}.cls-4{fill:#5bb05b;}</style></defs><title>Logo</title><path class="cls-1" d="M106.13,117.36v47.12c0,27.21-8,45.56-33.53,45.56s-34.75-18.35-34.75-45.56V117.36a4,4,0,0,1,3.81-4H42a3.84,3.84,0,0,1,3.68,4v47.12c0,22.65,7.13,37.75,26.89,37.75s25.55-15.1,25.55-37.75V117.36a4,4,0,0,1,3.81-4h0.37a4,4,0,0,1,3.81,4" transform="translate(-20.67 -33.99)"/><path class="cls-1" d="M141.14,154.07c-9,6.64-14.74,9.24-14.74,23.17l-0.12,27.2a3.83,3.83,0,0,1-3.81,3.9h-0.25a3.83,3.83,0,0,1-3.81-3.9V150a3.94,3.94,0,0,1,3.81-4h0.25a4,4,0,0,1,3.93,4v4c0,1.17.74,0.91,1.11,0.39,1.84-2.34,5.64-6.51,8-7.81,1.84-1,5.28-.65,6.51,1.56a0.7,0.7,0,0,0,.25.39c0.62,1.3.74,4.17-1.1,5.47" transform="translate(-20.67 -33.99)"/><path class="cls-1" d="M150.71,113.32h0.49a3.92,3.92,0,0,1,3.81,3.91v37.36a0.71,0.71,0,0,0,1.35.39c5.89-7.55,12.89-10.55,21.12-10.55a28.56,28.56,0,0,1,21.86,9.5c6.14,6.38,9.09,14.06,9.09,23.17a32.52,32.52,0,0,1-9.09,23.3A29.13,29.13,0,0,1,177.48,210c-8.23,0-16-4.17-21.61-11.06-0.62-.78-0.86.13-0.86,0.52v4.94a3.83,3.83,0,0,1-3.81,3.9h-0.49a3.8,3.8,0,0,1-3.68-3.9V117.23a3.9,3.9,0,0,1,3.68-3.91m26.77,88.91c12.77,0,23.09-11.58,23.09-25.12s-10.31-24.87-23.09-24.87-23.09,11.32-23.09,24.87,10.32,25.12,23.09,25.12" transform="translate(-20.67 -33.99)"/><path class="cls-1" d="M247.36,144.43c8.47,0,16.95,3.64,21.74,10,0.37,0.65,1.6,1,1.6-.65V150a3.94,3.94,0,0,1,3.8-4h0.25a3.94,3.94,0,0,1,3.8,4v54.41a3.94,3.94,0,0,1-3.8,4H274.5a3.94,3.94,0,0,1-3.8-4v-3.91c0-1.56-.86-1.3-1.11-0.91a27.79,27.79,0,0,1-22,10.42c-17.19,0-31.31-14.45-31.31-32.68s13.87-32.93,31.07-32.93m0.25,57.79c12.77,0,23-11.32,23-24.86s-10.44-25.12-23.21-25.12-23.21,11.58-23.21,25.12,10.56,24.86,23.46,24.86" transform="translate(-20.67 -33.99)"/><path class="cls-1" d="M341.06,170.21v34.1a3.94,3.94,0,0,1-3.81,4H337a4,4,0,0,1-3.81-4V170.73c0-12.88-9.21-18.48-17.68-18.48-11.17,0-16.58,5.34-16.58,16.14v35.92a3.94,3.94,0,0,1-3.81,4h-0.37a3.94,3.94,0,0,1-3.81-4l-0.12-54.41a3.83,3.83,0,0,1,3.81-3.91h0.49a3.72,3.72,0,0,1,3.68,3.91v0.39a0.55,0.55,0,0,0,1,.39c4.17-5,10.93-6.25,15.72-6.25,11.17,0,25.54,5.6,25.54,25.77" transform="translate(-20.67 -33.99)"/><path class="cls-2" d="M757.39,152.45c-9.21,6.82-15.15,9.49-15.15,23.8l-0.13,27.95a3.93,3.93,0,0,1-3.91,4h-0.25a3.94,3.94,0,0,1-3.91-4V148.31a4.06,4.06,0,0,1,3.91-4.15h0.25a4.16,4.16,0,0,1,4,4.15v4.14c0,1.21.76,0.93,1.13,0.4,1.9-2.41,5.81-6.69,8.21-8,1.9-1.07,5.43-.67,6.69,1.6a0.69,0.69,0,0,0,.25.4c0.63,1.34.76,4.28-1.13,5.62" transform="translate(-20.67 -33.99)"/><path class="cls-2" d="M738.2,210.32h-0.25a6.08,6.08,0,0,1-6-6.12V148.31a6.15,6.15,0,0,1,6-6.26h0.25a6.29,6.29,0,0,1,6.15,6.26v0.17a29.79,29.79,0,0,1,6.21-5.49,7,7,0,0,1,3.43-.83,6.88,6.88,0,0,1,6.13,3.26l0.31,0.52c1,2.18,1,6.27-1.82,8.24-0.9.66-1.8,1.31-2.66,1.94-7.47,5.39-11.59,8.35-11.59,20.14l-0.13,28A6.08,6.08,0,0,1,738.2,210.32Zm-0.25-64a2,2,0,0,0-1.8,2V204.2a1.84,1.84,0,0,0,1.8,1.9h0.25a1.84,1.84,0,0,0,1.8-1.9l0.13-28c0-13.94,5.6-18,13.35-23.55,0.85-.61,1.74-1.25,2.66-1.93,0.77-.54.81-2,0.56-2.81a2.84,2.84,0,0,1-.36-0.64c-0.77-1-2.87-1.12-3.71-.64-2,1.1-5.67,5.06-7.58,7.49a3,3,0,0,1-2.35,1.26,2.66,2.66,0,0,1-2.56-3v-4.14a2.06,2.06,0,0,0-1.93-2h-0.25Z" transform="translate(-20.67 -33.99)"/><path class="cls-2" d="M411.83,140.42c0,18.59-14.27,30.75-31.82,30.75h-17.3c-1.14,0-1.51.27-1.51,1.47v31.42a4.06,4.06,0,0,1-3.91,4.15h-0.38a4.06,4.06,0,0,1-3.91-4.15V114.74a4.06,4.06,0,0,1,3.91-4.15H380c17.55,0,31.82,11.23,31.82,29.82m-8.08,0c0-13.91-10.6-21.26-23.74-21.26h-17.3a1.25,1.25,0,0,0-1.51,1.47v40.25c0,1.2.25,1.6,1.39,1.6H380c13.13,0,23.74-8.16,23.74-22.06" transform="translate(-20.67 -33.99)"/><path class="cls-2" d="M357.29,210.32h-0.38a6.15,6.15,0,0,1-6-6.26V114.74a6.15,6.15,0,0,1,6-6.25H380c20,0,33.93,13.13,33.93,31.93,0,19-14.27,32.86-33.93,32.86h-16.7v30.79A6.15,6.15,0,0,1,357.29,210.32Zm-0.38-97.62a2,2,0,0,0-1.8,2v89.33a2,2,0,0,0,1.8,2h0.38a2,2,0,0,0,1.8-2V172.64a3.26,3.26,0,0,1,3.62-3.58H380c17.22,0,29.71-12,29.71-28.65,0-16.31-12.21-27.71-29.71-27.71h-23.1ZM380,164.58H362.59c-1.31,0-3.5-.48-3.5-3.71V120.62a3.31,3.31,0,0,1,3.62-3.58H380c15.46,0,25.85,9.39,25.85,23.37C405.86,154.65,395.23,164.58,380,164.58Zm-16.7-4.22H380c10.77,0,21.63-6.17,21.63-20,0-14.14-11.65-19.15-21.63-19.15H363.32v39.1Z" transform="translate(-20.67 -33.99)"/><path class="cls-2" d="M475.46,176.25c0,18.59-14.26,33.7-31.94,33.7s-31.82-15.11-31.82-33.7,14.27-33.69,31.82-33.69,31.94,15.11,31.94,33.69m-8.2,0c0-13.9-10.61-25.67-23.74-25.67s-23.74,11.77-23.74,25.67,10.73,25.68,23.74,25.68,23.74-11.77,23.74-25.68" transform="translate(-20.67 -33.99)"/><path class="cls-2" d="M443.52,212.06c-18.71,0-33.93-16.06-33.93-35.81s15.22-35.8,33.93-35.8,34,16.06,34,35.8S462.3,212.06,443.52,212.06Zm0-67.39c-16.38,0-29.71,14.17-29.71,31.59s13.33,31.59,29.71,31.59,29.83-14.17,29.83-31.59S460,144.66,443.52,144.66Zm0,59.37c-14,0-25.84-12.72-25.84-27.79s11.84-27.78,25.84-27.78c14.25,0,25.84,12.47,25.84,27.78S457.77,204,443.52,204Zm0-51.35c-11.72,0-21.62,10.79-21.62,23.56s9.9,23.57,21.62,23.57c11.93,0,21.63-10.57,21.63-23.57S455.45,152.69,443.52,152.69Z" transform="translate(-20.67 -33.99)"/><path class="cls-2" d="M509.3,148.3v0.27a4.06,4.06,0,0,1-3.92,4.14h-5.8c-1.27,0-1.64.27-1.64,1.47v49.88a4.06,4.06,0,0,1-3.92,4.15h-0.25a4.06,4.06,0,0,1-3.91-4.15V154.32c0-1.07-.38-1.61-1.39-1.61h-6.06a4.06,4.06,0,0,1-3.92-4.14V148.3a4.06,4.06,0,0,1,3.92-4.15h5.93c1,0,1.52-.8,1.52-2.14V114.74a4.05,4.05,0,0,1,3.91-4.14H494a4.06,4.06,0,0,1,3.92,4.14v27.68a1.48,1.48,0,0,0,1.51,1.74h5.93a4.06,4.06,0,0,1,3.92,4.15" transform="translate(-20.67 -33.99)"/><path class="cls-2" d="M494,210.32h-0.25a6.15,6.15,0,0,1-6-6.26V154.82h-5.34a6.15,6.15,0,0,1-6-6.25V148.3a6.15,6.15,0,0,1,6-6.26h5.34V114.74a6.15,6.15,0,0,1,6-6.25H494a6.15,6.15,0,0,1,6,6.25V142h5.34a6.15,6.15,0,0,1,6,6.26v0.27a6.15,6.15,0,0,1-6,6.25h-5.33v49.24A6.15,6.15,0,0,1,494,210.32Zm-11.62-64.06a2,2,0,0,0-1.81,2v0.27a2,2,0,0,0,1.81,2h6.06a3.35,3.35,0,0,1,3.5,3.72v49.74a2,2,0,0,0,1.8,2H494a2,2,0,0,0,1.81-2V154.19c0-1.63.65-3.58,3.75-3.58h5.8a2,2,0,0,0,1.81-2V148.3a2,2,0,0,0-1.81-2h-5.93a3.57,3.57,0,0,1-3.62-3.85V114.74a2,2,0,0,0-1.81-2h-0.25a2,2,0,0,0-1.8,2V142c0,2.93-1.82,4.25-3.63,4.25h-5.93Z" transform="translate(-20.67 -33.99)"/><path class="cls-2" d="M544.27,142.55c8.71,0,17.43,3.74,22.35,10.29,0.39,0.67,1.64,1.07,1.64-.67V148.3a4.06,4.06,0,0,1,3.92-4.15h0.25a4.06,4.06,0,0,1,3.91,4.15V204.2a4.05,4.05,0,0,1-3.91,4.14h-0.25a4.05,4.05,0,0,1-3.92-4.14v-4c0-1.6-.88-1.34-1.13-0.93a28.57,28.57,0,0,1-22.6,10.7c-17.67,0-32.19-14.84-32.19-33.57s14.27-33.83,31.94-33.83m0.25,59.37c13.13,0,23.61-11.64,23.61-25.55s-10.73-25.8-23.86-25.8-23.86,11.9-23.86,25.8,10.86,25.55,24.12,25.55" transform="translate(-20.67 -33.99)"/><path class="cls-2" d="M544.53,212.06c-18.91,0-34.3-16-34.3-35.68s15.27-35.94,34-35.94c8.44,0,16.53,3.25,21.88,8.65V148.3a6.15,6.15,0,0,1,6-6.26h0.25a6.15,6.15,0,0,1,6,6.26V204.2a6.15,6.15,0,0,1-6,6.25h-0.25a6.15,6.15,0,0,1-6-6.25v-0.74A30.91,30.91,0,0,1,544.53,212.06Zm-0.25-67.39c-16.45,0-29.83,14.23-29.83,31.72s13.5,31.46,30.08,31.46a26.54,26.54,0,0,0,20.9-9.85,2.76,2.76,0,0,1,2.22-1.16c1,0,2.72.7,2.72,3.35v4a2,2,0,0,0,1.81,2h0.25a2,2,0,0,0,1.8-2V148.3a2,2,0,0,0-1.8-2h-0.25a2,2,0,0,0-1.81,2v3.88c0,2.3-1.48,3.35-2.85,3.35a3.22,3.22,0,0,1-2.65-1.49C560.49,148.25,552.6,144.66,544.27,144.66ZM544.53,204c-14.46,0-26.22-12.4-26.22-27.65s11.65-27.91,26-27.91c14.08,0,26,12.79,26,27.91S558.71,204,544.53,204Zm-0.25-51.35c-11.79,0-21.75,10.85-21.75,23.7s10.08,23.43,22,23.43S566,189.31,566,176.38,556.06,152.69,544.27,152.69Z" transform="translate(-20.67 -33.99)"/><path class="cls-2" d="M651.08,148.31V199a32.78,32.78,0,0,1-9.22,23.4,30.06,30.06,0,0,1-17.8,9.36c-2.27.41-5.3-.53-5.68-3.87-0.38-4.28,2.78-5.35,4.92-5.49a19,19,0,0,0,12.62-6.28c3.79-4,6.31-7.62,7.07-10.7s0-7.76-.5-7a30.24,30.24,0,0,1-23.86,11.5c-19.07,0-31.94-12.84-31.94-33.57,0-20.05,14.39-33.83,31.94-33.83A31.14,31.14,0,0,1,642,153.25c0.13,0.13,1,.67,1-1.2v-3.74a4.06,4.06,0,0,1,3.91-4.15h0.38a4,4,0,0,1,3.79,4.15M643,176.38c0-14-11.11-25.8-24.36-25.8S594.9,163,594.9,176.38c0,15.25,9.6,25.55,23.74,25.55,13.25,0,24.36-11.64,24.36-25.55" transform="translate(-20.67 -33.99)"/><path class="cls-2" d="M623.05,233.94a6.49,6.49,0,0,1-6.76-5.84,7,7,0,0,1,1.5-5.4,7.73,7.73,0,0,1,5.39-2.42,17,17,0,0,0,11.22-5.62c3.73-3.95,5.93-7.23,6.55-9.75a9.22,9.22,0,0,0,.25-1.86,32.48,32.48,0,0,1-22.56,9c-20.69,0-34.05-14-34.05-35.68,0-20.49,14.64-35.94,34.05-35.94a32.78,32.78,0,0,1,22.25,8.7v-0.84a6.15,6.15,0,0,1,6-6.26h0.38a6.17,6.17,0,0,1,5.9,6.26V199a35.08,35.08,0,0,1-9.79,24.85,32,32,0,0,1-19,10A7.41,7.41,0,0,1,623.05,233.94Zm19.56-37.69a2.25,2.25,0,0,1,1.79.89c1.13,1.45,1.32,6.18.64,8.78-0.8,3.26-3.29,7.07-7.58,11.62a21.15,21.15,0,0,1-14,6.94,3.75,3.75,0,0,0-2.45,1,3,3,0,0,0-.49,2.23,2.3,2.3,0,0,0,2.57,2,3.49,3.49,0,0,0,.64-0.06,28,28,0,0,0,16.64-8.73A30.59,30.59,0,0,0,649,199V148.31a2,2,0,0,0-1.68-2h-0.38a2,2,0,0,0-1.8,2V152c0,3.39-2.43,3.49-2.71,3.49a2.75,2.75,0,0,1-2-.84,29,29,0,0,0-21.82-10c-17,0-29.84,13.64-29.84,31.72,0,19.11,11.71,31.46,29.84,31.46a28,28,0,0,0,22.18-10.67l0.63-.83Zm-24,7.78c-15.22,0-25.85-11.37-25.85-27.65,0-14.87,12.08-27.92,25.85-27.92,14.35,0,26.47,12.78,26.47,27.92S633,204,618.64,204Zm0-51.35c-11.52,0-21.63,11.07-21.63,23.7,0,14,8.69,23.43,21.63,23.43,12.06,0,22.25-10.73,22.25-23.43S630.7,152.69,618.64,152.69Z" transform="translate(-20.67 -33.99)"/><path class="cls-2" d="M720.14,174.78H671.79c-1.77,0-2.15.53-2,2.54,0.5,6.69,2.78,12.17,6.94,16.45,4.55,4.82,10.1,8.16,16.67,8.16s13.13-3.61,16-7.36,4.67-5.08,7.57-3.21c2.28,1.6,2.4,4.68.51,6.82a20.53,20.53,0,0,1-1.52,1.74c-6.31,6.68-13.76,10-22.6,10s-16.29-3.34-22.6-9.89a33.94,33.94,0,0,1-9.34-23.94,33.39,33.39,0,0,1,9.34-23.8,31,31,0,0,1,45.19,0,30,30,0,0,1,8,17.12c0.25,2-.25,5.35-3.78,5.35M714,163.68a20.06,20.06,0,0,0-3.91-5.21c-4.67-5-10.22-7.89-16.67-7.89s-12.12,2.94-16.79,7.89a31.35,31.35,0,0,0-4.42,5.88c-0.88,1.74-.25,1.87,1.77,1.87h38.88c2.65,0,1.9-1.21,1.14-2.54" transform="translate(-20.67 -33.99)"/><path class="cls-2" d="M693.38,212.06c-9.26,0-17.37-3.55-24.12-10.54a36.26,36.26,0,0,1-9.93-25.4,35.64,35.64,0,0,1,9.91-25.25,33.15,33.15,0,0,1,48.27,0A32.18,32.18,0,0,1,726,169.16a7.83,7.83,0,0,1-1.51,5.89,5.59,5.59,0,0,1-4.37,1.84H671.86c0,0.08,0,.18,0,0.29,0.47,6.25,2.55,11.2,6.35,15.11,4.72,5,9.81,7.52,15.16,7.52,5.82,0,11.87-3.32,14.37-6.54,2-2.56,4-4.87,6.85-4.87a6.47,6.47,0,0,1,3.53,1.18,6.36,6.36,0,0,1,2.75,4.51,7.08,7.08,0,0,1-1.8,5.48,20.83,20.83,0,0,1-1.52,1.75C710.81,208.46,702.69,212.06,693.38,212.06Zm0-67.39a27.62,27.62,0,0,0-21.06,9.1,31.14,31.14,0,0,0-8.77,22.35,31.73,31.73,0,0,0,8.78,22.5c6,6.19,12.87,9.22,21.05,9.22s15.11-3.07,21.07-9.37a18.34,18.34,0,0,0,1.36-1.56,3,3,0,0,0,.88-2.32,2.12,2.12,0,0,0-.92-1.51,2.45,2.45,0,0,0-1.17-.45c-0.9,0-2.35,1.73-3.52,3.23-3.07,4-10.32,8.17-17.7,8.17-6.55,0-12.67-3-18.2-8.82-4.43-4.56-7-10.53-7.51-17.74a4.66,4.66,0,0,1,.93-3.7,4.15,4.15,0,0,1,3.19-1.11h48.35a1.41,1.41,0,0,0,1.2-.41,3.56,3.56,0,0,0,.49-2.56,28,28,0,0,0-7.39-15.94A27.62,27.62,0,0,0,693.38,144.66Zm19.44,23.67H673.94c-1.34,0-3,0-3.88-1.42a3.55,3.55,0,0,1,.23-3.52,33.4,33.4,0,0,1,4.76-6.37c5.35-5.68,11.52-8.55,18.32-8.55s12.84,2.88,18.2,8.55a22.08,22.08,0,0,1,4.26,5.7c0.58,1,1.45,2.54.58,4S713.56,168.33,712.82,168.33Zm-38-4.22h37a18.38,18.38,0,0,0-3.23-4.14c-4.58-4.85-9.67-7.28-15.19-7.28s-10.73,2.43-15.26,7.23A30.17,30.17,0,0,0,674.8,164.11Z" transform="translate(-20.67 -33.99)"/><path class="cls-3" d="M72.61,212.15c-24.46,0-36.86-16-36.86-47.67V117.36a6,6,0,0,1,5.91-6.14H42a5.91,5.91,0,0,1,5.79,6.14v47.12c0,24,8.11,35.64,24.79,35.64,16.21,0,23.44-11,23.44-35.64V117.36a6,6,0,0,1,5.92-6.14h0.37a6,6,0,0,1,5.92,6.14v47.12C108.24,196.56,96.59,212.15,72.61,212.15ZM41.66,115.43a1.85,1.85,0,0,0-1.7,1.93v47.12c0,29.24,10.68,43.45,32.64,43.45,21.73,0,31.41-13.4,31.41-43.45V117.36a1.85,1.85,0,0,0-1.69-1.93H102a1.85,1.85,0,0,0-1.7,1.93v47.12c0,17.11-2.86,39.86-27.65,39.86-19.24,0-29-13.41-29-39.86V117.36A1.76,1.76,0,0,0,42,115.43H41.66Z" transform="translate(-20.67 -33.99)"/><path class="cls-3" d="M122.47,210.45h-0.25a6,6,0,0,1-5.92-6V150a6,6,0,0,1,5.92-6.15h0.25a6.18,6.18,0,0,1,6,6.15v0a28.83,28.83,0,0,1,6-5.25,6.84,6.84,0,0,1,3.36-.82,6.75,6.75,0,0,1,6,3.2l0.31,0.51c1,2.07,1.07,6.06-1.8,8.09l-2.59,1.88c-7.26,5.23-11.26,8.11-11.26,19.57l-0.12,27.21A6,6,0,0,1,122.47,210.45Zm-0.25-62.35a1.85,1.85,0,0,0-1.7,1.93v54.41a1.73,1.73,0,0,0,1.7,1.79h0.25a1.73,1.73,0,0,0,1.7-1.79l0.12-27.21c0-13.6,5.46-17.53,13-23,0.83-.59,1.69-1.22,2.58-1.88,0.73-.51.76-1.92,0.53-2.67a2.63,2.63,0,0,1-.36-0.62c-0.73-1-2.73-1.05-3.53-.6-1.91,1.07-5.5,4.91-7.36,7.28a2.92,2.92,0,0,1-2.32,1.25,2.63,2.63,0,0,1-2.55-2.94v-4a2,2,0,0,0-1.82-1.93h-0.25Z" transform="translate(-20.67 -33.99)"/><path class="cls-3" d="M177.48,212.15a29.54,29.54,0,0,1-20.36-8.71v1a6,6,0,0,1-5.92,6h-0.49a5.91,5.91,0,0,1-5.79-6V117.23a6,6,0,0,1,5.79-6h0.49a6,6,0,0,1,5.92,6v33.65a27,27,0,0,1,20.36-8.55,30.71,30.71,0,0,1,23.41,10.18,36.36,36.36,0,0,1,0,49.35A31.16,31.16,0,0,1,177.48,212.15Zm-22.05-15.59a2.62,2.62,0,0,1,2.09,1.11c5.33,6.51,12.62,10.26,20,10.26a27.07,27.07,0,0,0,20.32-9,30.4,30.4,0,0,0,8.51-21.85c0-8.67-2.78-15.77-8.5-21.71a26.33,26.33,0,0,0-20.34-8.86c-8.06,0-14.22,3.07-19.39,9.65a3,3,0,0,1-2.44,1.34,2.79,2.79,0,0,1-2.75-2.95V117.23a1.82,1.82,0,0,0-1.7-1.8h-0.49a1.81,1.81,0,0,0-1.58,1.8v87.21a1.7,1.7,0,0,0,1.58,1.79h0.49a1.73,1.73,0,0,0,1.7-1.79V199.5A2.7,2.7,0,0,1,155.43,196.56Zm22.05,7.78c-13.66,0-25.2-12.47-25.2-27.23s11.3-27,25.2-27,25.19,12.1,25.19,27S191.14,204.34,177.48,204.34Zm0-50c-11.56,0-21,10.21-21,22.76s9.61,23,21,23,21-10.54,21-23S189,154.35,177.48,154.35Z" transform="translate(-20.67 -33.99)"/><path class="cls-3" d="M247.61,212.15c-18.43,0-33.43-15.6-33.43-34.78s14.88-35,33.18-35a30.35,30.35,0,0,1,21.22,8.34V150a6,6,0,0,1,5.91-6.15h0.25a6,6,0,0,1,5.92,6.15v54.41a6,6,0,0,1-5.92,6.14H274.5a6,6,0,0,1-5.91-6.14v-0.59A30.11,30.11,0,0,1,247.61,212.15Zm-0.25-65.61c-16,0-29,13.83-29,30.82s13.1,30.57,29.21,30.57a25.75,25.75,0,0,0,20.28-9.56,2.73,2.73,0,0,1,2.21-1.15c1,0,2.71.7,2.71,3.32v3.91a1.84,1.84,0,0,0,1.69,1.92h0.25a1.85,1.85,0,0,0,1.7-1.92V150a1.85,1.85,0,0,0-1.7-1.93H274.5A1.85,1.85,0,0,0,272.8,150v3.77c0,2.28-1.47,3.31-2.83,3.31a3.18,3.18,0,0,1-2.62-1.48C263.09,150,255.44,146.54,247.36,146.54Zm0.25,57.8c-14.1,0-25.56-12.1-25.56-27s11.35-27.23,25.32-27.23c13.72,0,25.32,12.47,25.32,27.23S261.43,204.34,247.61,204.34Zm-0.25-50c-11.44,0-21.1,10.54-21.1,23s9.78,22.75,21.35,22.75,20.85-10.21,20.85-22.75S258.8,154.35,247.36,154.35Z" transform="translate(-20.67 -33.99)"/><path class="cls-3" d="M337.25,210.45H337a6,6,0,0,1-5.92-6.15V170.73c0-11.31-7.82-16.37-15.57-16.37-10,0-14.47,4.33-14.47,14v35.92a6,6,0,0,1-5.92,6.15h-0.37a6,6,0,0,1-5.92-6.15l-0.12-54.4a6,6,0,0,1,5.92-6h0.49a5.82,5.82,0,0,1,5.2,3.29c5.21-4.33,12.17-4.86,15.18-4.86,13.37,0,27.65,7.33,27.65,27.88v34.1A6,6,0,0,1,337.25,210.45Zm-21.73-60.32c9.53,0,19.79,6.45,19.79,20.59v33.58a1.85,1.85,0,0,0,1.7,1.93h0.25a1.85,1.85,0,0,0,1.7-1.93v-34.1c0-22-17.94-23.67-23.43-23.67-2.85,0-9.92.53-14.11,5.5a2.84,2.84,0,0,1-2.08,1,2.64,2.64,0,0,1-2.62-2.72V149.9a1.62,1.62,0,0,0-1.57-1.8h-0.49a1.74,1.74,0,0,0-1.7,1.8l0.13,54.4a1.85,1.85,0,0,0,1.7,1.93h0.37a1.85,1.85,0,0,0,1.7-1.93V168.38C296.83,156.44,303.29,150.13,315.52,150.13Z" transform="translate(-20.67 -33.99)"/><path class="cls-4" d="M140.18,34c-9.93,9.92-30.28-.08-51,20.63C72.11,71.7,78.57,85.78,73.88,97.69H71.65c-2.69-9,1.47-19.5-11.22-32.19-16.15-16.15-32-8.36-39.75-16.11,7.74,7.74-.05,23.6,16.1,39.76C49.67,102,60.22,97.63,69.26,100.62l-0.08,4.23L69,105l0.15-.14-1.35,72.38a4.74,4.74,0,1,0,9.48,0l-1.44-76.87c12-5.06,26.37,1.92,43.68-15.4C140.26,64.27,130.25,43.91,140.18,34ZM53.45,83.83C43.35,73.72,41.67,70.35,36.83,65.52,41.67,70.35,45,72,55.14,82.13,64,91,64.8,93.12,69.32,97.95v0.13C64.44,93.5,62.39,92.76,53.45,83.83Zm22.38,14v-0.1h0c8-8.32,9.66-11.39,24.8-26.53,16.89-16.89,13.92-12.12,22-20.22-8.09,8.09-3.32,5.12-20.22,22C87.24,88.12,84.18,89.73,75.82,97.79Z" transform="translate(-20.67 -33.99)"/></svg>